<svg width="175" height="44" viewBox="0 0 175 44" fill="none" xmlns="http://www.w3.org/2000/svg">
<path d="M9.41925 13.5303C8.16533 13.5303 7.17381 14.0758 6.50308 15.1364C5.8032 16.197 5.45326 17.6818 5.45326 19.5606C5.45326 23.4697 6.88219 25.4394 9.74001 25.4394C10.6149 25.4394 11.4315 25.2879 12.2772 25.0758C13.0645 24.8333 13.9102 24.5303 14.7268 24.1667V28.8333C13.0937 29.5606 11.2273 29.9243 9.18594 29.9243C6.21147 29.9243 3.966 29.0454 2.42043 27.2576C0.874856 25.4697 0 22.8939 0 19.5303C0 17.4091 0.408266 15.5606 1.16647 13.9545C1.92468 12.3485 3.03283 11.1364 4.43259 10.2576C5.83236 9.37879 7.58207 8.95454 9.47755 8.95454C11.6064 8.95454 13.5894 9.40909 15.5432 10.3788L13.9102 14.7121C13.2103 14.3485 12.4521 14.0758 11.7522 13.8333C10.994 13.6212 10.2066 13.5303 9.41925 13.5303ZM32.6613 21.7424C32.6613 24.3182 31.9905 26.3485 30.6782 27.7728C29.3368 29.197 27.4996 29.9243 25.1083 29.9243C22.7171 29.9243 20.9965 29.197 19.6259 27.7121C18.2553 26.2273 17.5846 24.2576 17.5846 21.7121C17.5846 19.1667 18.2553 17.1667 19.5676 15.7121C20.909 14.2879 22.8045 13.5606 25.1958 13.5606C26.7122 13.5606 27.9954 13.8939 29.1327 14.5303C30.2991 15.1667 31.1739 16.1363 31.7864 17.3787C32.3696 18.6515 32.6613 20.0758 32.6613 21.7424ZM22.8337 21.7424C22.8337 23.0758 23.0087 24.1363 23.3586 24.8333C23.7085 25.5303 24.2918 25.8939 25.1374 25.8939C25.9248 25.8939 26.5081 25.5303 26.8581 24.8333C27.208 24.1061 27.3537 23.0758 27.3537 21.7424C27.3537 20.4091 27.1788 19.4091 26.8581 18.7121C26.5081 18.0152 25.9248 17.7121 25.1374 17.7121C24.3501 17.7121 23.7668 18.0454 23.4169 18.7121C23.0087 19.3485 22.8337 20.3485 22.8337 21.7424ZM40.914 29.6515H35.6941V13.8939H40.914V29.6515ZM35.5482 9.95454C35.5482 9.13637 35.7815 8.5303 36.219 8.10606C36.6564 7.68182 37.3854 7.5 38.3477 7.5C39.3101 7.5 40.0392 7.68182 40.4766 8.10606C40.914 8.5303 41.1474 9.10606 41.1474 9.89394C41.1474 11.5 40.2141 12.2879 38.3477 12.2879C36.4815 12.3485 35.5482 11.5606 35.5482 9.95454ZM54.1535 29.6515V21.0454C54.1535 19.9848 54.0076 19.197 53.716 18.7121C53.4536 18.1667 52.9579 17.8939 52.3454 17.8939C51.4706 17.8939 50.8291 18.2576 50.4499 18.9848C50.0417 19.7121 49.8667 20.9546 49.8667 22.7727V29.6818H44.6467V13.9242H48.5836L49.2543 15.8637H49.5751C50.0125 15.1364 50.6249 14.5606 51.4414 14.197C52.2288 13.8333 53.1328 13.6515 54.1826 13.6515C55.874 13.6515 57.1572 14.1667 58.0903 15.1667C59.0235 16.1667 59.5192 17.6213 59.5192 19.4394V29.7121H54.2118L54.1535 29.6515ZM74.6833 24.8333C74.6833 26.5303 74.1585 27.7728 73.0503 28.6515C71.9421 29.5303 70.3383 29.9546 68.2678 29.9546C67.1596 29.9546 66.1973 29.8939 65.3516 29.7728C64.506 29.6213 63.6602 29.4091 62.8145 29.0758V24.7121C63.6019 25.0758 64.506 25.4091 65.4683 25.6213C66.4306 25.8637 67.2763 25.9848 68.0929 25.9848C69.2593 25.9848 69.7842 25.7121 69.7842 25.1667C69.7842 24.8939 69.6092 24.6515 69.2885 24.4394C68.9677 24.2272 68.0345 23.803 66.5473 23.1363C65.1767 22.5303 64.1851 21.8939 63.631 21.1061C63.1061 20.3182 62.7854 19.4091 62.7854 18.197C62.7854 16.7121 63.3103 15.5606 64.4184 14.803C65.5266 13.9848 67.043 13.5606 69.026 13.5606C70.0467 13.5606 70.9798 13.7121 71.8255 13.9242C72.7004 14.1667 73.6336 14.4697 74.5667 14.8939L73.1378 18.3787C72.4379 18.0454 71.7089 17.7727 70.9215 17.5606C70.1342 17.3182 69.4926 17.197 69.026 17.197C68.1803 17.197 67.7429 17.4394 67.7429 17.8333C67.7429 18.1061 67.8887 18.3485 68.1803 18.5303C68.4719 18.7121 69.3468 19.0758 70.8048 19.6818C71.8547 20.1363 72.6712 20.5909 73.167 21.0152C73.6919 21.4394 74.1001 21.9848 74.3334 22.5909C74.5376 23.2576 74.6833 23.9546 74.6833 24.8333ZM86.6687 29.9243C85.911 29.9243 85.211 29.7727 84.5983 29.5606C83.9864 29.2879 83.4025 28.8333 82.7906 28.1363H82.5568C82.7322 29.2273 82.7906 29.9243 82.7906 30.197V36.5H77.5704V13.8939H81.8279L82.5864 15.9243H82.8195C83.7822 14.4091 85.1237 13.6212 86.8441 13.6212C88.5644 13.6212 89.8475 14.3485 90.7805 15.7727C91.7432 17.197 92.2094 19.2273 92.2094 21.7121C92.2094 24.197 91.7136 26.2576 90.6933 27.7424C89.7017 29.197 88.3602 29.9243 86.6687 29.9243ZM84.9195 17.8637C84.161 17.8637 83.5779 18.1363 83.2864 18.7424C82.9652 19.2879 82.7906 20.1667 82.7906 21.2879V21.7121C82.7906 23.0454 82.9652 24.0454 83.3152 24.6515C83.6652 25.2576 84.1898 25.5606 84.9483 25.5606C85.6195 25.5606 86.1144 25.2879 86.4068 24.6818C86.7271 24.0758 86.8441 23.0758 86.8441 21.6818C86.8441 20.2879 86.6983 19.3787 86.4068 18.7727C86.1144 18.1667 85.6195 17.8637 84.9195 17.8637ZM102.533 29.9243C99.9959 29.9243 98.0713 29.2273 96.6425 27.8637C95.2713 26.4697 94.5721 24.4697 94.5721 21.8637C94.5721 19.2576 95.2424 17.1667 96.5255 15.7424C97.8086 14.3182 99.6747 13.5909 102.066 13.5909C104.458 13.5909 106.091 14.197 107.344 15.4394C108.599 16.6818 109.211 18.4394 109.211 20.7727V23.2273H99.8501C99.9086 24.1061 100.2 24.803 100.783 25.2879C101.366 25.803 102.154 26.0152 103.175 26.0152C104.108 26.0152 104.954 25.9242 105.711 25.7424C106.499 25.5606 107.315 25.2273 108.249 24.8333V28.7424C107.403 29.1667 106.557 29.4697 105.711 29.6515C104.808 29.8333 103.729 29.9243 102.533 29.9243ZM102.242 17.3182C101.629 17.3182 101.075 17.5 100.696 17.9243C100.287 18.3485 100.025 18.9243 99.9959 19.803H104.516C104.516 19.0152 104.282 18.4091 103.904 17.9546C103.437 17.5606 102.883 17.3182 102.242 17.3182ZM122.042 29.6515L121.022 27.5909H120.934C120.234 28.5 119.505 29.1061 118.776 29.4394C118.018 29.7728 117.085 29.9546 115.948 29.9546C114.518 29.9546 113.381 29.5 112.593 28.6213C111.748 27.7424 111.34 26.4697 111.34 24.8333C111.34 23.197 111.923 21.8939 113.031 21.1061C114.139 20.2879 115.772 19.803 117.901 19.7121L120.438 19.6213V19.3787C120.438 18.0758 119.826 17.4394 118.572 17.4394C117.464 17.4394 116.035 17.803 114.372 18.5909L112.856 14.9848C114.635 14.0152 116.851 13.5606 119.534 13.5606C121.488 13.5606 123.005 14.0758 124.055 15.0758C125.104 16.0758 125.658 17.4697 125.658 19.2576V29.5606H122.072L122.042 29.6515ZM118.193 26.0758C118.805 26.0758 119.36 25.8333 119.826 25.4394C120.263 25.0152 120.497 24.4697 120.497 23.8333V22.5909L119.301 22.6515C117.581 22.7121 116.735 23.3788 116.735 24.6213C116.677 25.6213 117.172 26.0758 118.193 26.0758ZM134.319 20.7727C134.932 19.7121 135.486 18.9242 135.952 18.3182L139.364 13.8636H145.226L139.947 20.5909L145.518 29.6515H139.539L136.215 23.9848L134.523 25.3182V29.5909H129.245V7.95455H134.523V16.4697C134.523 17.9546 134.436 19.3787 134.203 20.7424H134.319V20.7727ZM154.645 29.9243C152.108 29.9243 150.184 29.2273 148.754 27.8637C147.384 26.4697 146.684 24.4697 146.684 21.8637C146.684 19.2576 147.355 17.1667 148.638 15.7424C149.921 14.3182 151.787 13.5909 154.179 13.5909C156.57 13.5909 158.202 14.197 159.457 15.4394C160.711 16.6818 161.323 18.4394 161.323 20.7727V23.2273H151.933C151.991 24.1061 152.283 24.803 152.866 25.2879C153.45 25.803 154.237 26.0152 155.257 26.0152C156.191 26.0152 157.036 25.9242 157.795 25.7424C158.582 25.5606 159.398 25.2273 160.331 24.8333V28.7424C159.486 29.1667 158.641 29.4697 157.795 29.6515C156.919 29.8333 155.84 29.9243 154.645 29.9243ZM154.324 17.3182C153.712 17.3182 153.157 17.5 152.779 17.9243C152.37 18.3485 152.108 18.9243 152.079 19.803H156.599C156.599 19.0152 156.366 18.4091 155.986 17.9546C155.52 17.5606 154.995 17.3182 154.324 17.3182ZM173.396 13.5909C173.834 13.5909 174.271 13.6515 174.679 13.6818L175 13.7424L174.504 18.8637C174.067 18.7727 173.484 18.6818 172.725 18.6818C171.559 18.6818 170.742 18.9546 170.247 19.5C169.722 20.0454 169.459 20.8333 169.459 21.8333V29.5606H164.24V13.803H168.147L168.935 16.3485H169.197C169.634 15.5303 170.247 14.8333 171.005 14.3182C171.851 13.8636 172.638 13.5909 173.396 13.5909Z" fill="white"/>
</svg>
