<svg width="170" height="40" viewBox="0 0 170 40" fill="none" xmlns="http://www.w3.org/2000/svg">
<mask id="mask0_3285_537" style="mask-type:luminance" maskUnits="userSpaceOnUse" x="0" y="0" width="170" height="40">
<path d="M0 0H170V40H0V0Z" fill="white"/>
</mask>
<g mask="url(#mask0_3285_537)">
<path d="M55.8865 10.955C55.8103 12.0312 55.4191 12.8788 54.7129 13.4979C54.0072 14.1155 53.0769 14.4243 51.9222 14.4243C50.6593 14.4243 49.6665 13.9926 48.9436 13.1293C48.2193 12.2669 47.8572 11.0819 47.8572 9.57428V8.96214C47.8572 8.00071 48.0241 7.15333 48.3579 6.42C48.6917 5.68761 49.1684 5.12571 49.7879 4.73428C50.4084 4.3419 51.1291 4.14595 51.95 4.14642C53.0858 4.14642 54.0012 4.45571 54.6965 5.07428C55.3903 5.6919 55.7917 6.55976 55.9008 7.67785H53.8715C53.8215 7.03214 53.6443 6.5638 53.34 6.27285C53.0353 5.98238 52.5719 5.83714 51.95 5.83714C51.2734 5.83714 50.7672 6.08309 50.4315 6.575C50.0953 7.06785 49.9227 7.83166 49.9136 8.86642V9.62214C49.9136 10.7031 50.0748 11.4931 50.3972 11.9921C50.72 12.4921 51.2286 12.7419 51.9229 12.7414C52.5496 12.7414 53.0174 12.5962 53.3265 12.3057C53.6355 12.0143 53.8124 11.5643 53.8572 10.9557L55.8865 10.955ZM66.365 9.51214C66.365 10.4979 66.1936 11.3612 65.8508 12.1021C65.5084 12.8445 65.0179 13.4171 64.3793 13.82C63.7417 14.2229 63.0103 14.4243 62.185 14.4243C61.3688 14.4243 60.6403 14.2252 59.9993 13.8271C59.3598 13.4281 58.8638 12.859 58.5115 12.12C58.1596 11.3805 57.9815 10.5293 57.9772 9.56642V9.07214C57.9772 8.08738 58.1519 7.22071 58.5015 6.47214C58.851 5.72357 59.345 5.14857 59.9836 4.74714C60.6217 4.34714 61.351 4.1469 62.1715 4.14642C62.9924 4.14642 63.7219 4.34666 64.36 4.74714C64.9981 5.14857 65.4917 5.72357 65.8408 6.47214C66.1908 7.22071 66.3658 8.085 66.3658 9.065L66.365 9.51214ZM64.3093 9.05857C64.3093 8.00952 64.1246 7.21261 63.755 6.66785C63.385 6.12261 62.8572 5.85 62.1715 5.85C61.4905 5.85 60.965 6.11904 60.595 6.65714C60.225 7.19523 60.0381 7.98452 60.0343 9.025V9.51285C60.0343 10.5343 60.2191 11.3264 60.5886 11.8893C60.9581 12.4531 61.4903 12.735 62.185 12.735C62.8655 12.735 63.3888 12.4636 63.755 11.9207C64.1198 11.3779 64.3046 10.5864 64.3093 9.54642V9.05857ZM71.0522 14.2871H69.0236V4.28357H71.0522V14.2871ZM81.9986 14.2871H79.9686L76.0186 7.70571V14.2871H73.9893V4.28357H76.0186L79.9758 10.8793V4.28357H81.9986V14.2871ZM92.045 5.95357H89.0279V14.2871H86.9986V5.95357H84.0222V4.28357H92.045V5.95357ZM100.183 9.95214H96.2872V12.6314H100.859V14.2871H94.2572V4.28357H100.846V5.95357H96.2872V8.33714H100.183V9.95214ZM105.135 12.6314H109.444V14.2871H103.106V4.28357H105.135V12.6314ZM117.589 9.95142H113.693V12.6314H118.265V14.2871H111.664V4.28357H118.252V5.95357H113.693V8.33714H117.589V9.95142ZM128.305 13.0229C127.939 13.4671 127.423 13.8117 126.755 14.0564C126.088 14.3021 125.349 14.425 124.536 14.425C123.684 14.425 122.937 14.2359 122.294 13.8579C121.651 13.4798 121.155 12.9312 120.806 12.2121C120.456 11.4931 120.277 10.6481 120.268 9.67714V8.99642C120.268 7.99785 120.434 7.13357 120.766 6.40357C121.097 5.67309 121.575 5.11428 122.199 4.72714C122.824 4.34 123.556 4.14642 124.395 4.14642C125.563 4.14642 126.476 4.42928 127.134 4.995C127.793 5.56071 128.183 6.38404 128.305 7.465H126.329C126.239 6.89214 126.039 6.47309 125.731 6.20785C125.422 5.94214 124.997 5.80928 124.456 5.80928C123.765 5.80928 123.24 6.07261 122.879 6.59928C122.519 7.12595 122.336 7.90928 122.331 8.94928V9.58785C122.331 10.6369 122.527 11.4293 122.919 11.965C123.312 12.5007 123.887 12.7686 124.645 12.7686C125.407 12.7686 125.95 12.6038 126.275 12.2743V10.55H124.429V9.03142H128.305V13.0229ZM134.65 10.6257H133.034V14.2871H131.004V4.28357H134.664C135.827 4.28357 136.725 4.54714 137.356 5.07428C137.987 5.60047 138.303 6.34452 138.303 7.30642C138.303 7.98928 138.157 8.55833 137.866 9.01357C137.576 9.46976 137.135 9.83285 136.544 10.1029L138.675 14.1907V14.2871H136.496L134.65 10.6257ZM133.034 8.95571H134.67C135.18 8.95571 135.574 8.82404 135.854 8.56071C136.134 8.2969 136.274 7.93381 136.274 7.47142C136.274 7 136.142 6.62904 135.878 6.35857C135.614 6.08857 135.209 5.95357 134.664 5.95357H133.033L133.034 8.95571ZM146.461 12.2257H142.903L142.227 14.2871H140.069L143.736 4.28357H145.616L149.302 14.2871H147.145L146.461 12.2257ZM143.451 10.5571H145.914L144.676 6.81142L143.451 10.5571ZM153.307 10.7629V14.2871H151.278V4.28357H155.12C155.86 4.28357 156.511 4.42119 157.071 4.69642C157.633 4.97071 158.065 5.36119 158.367 5.86785C158.67 6.37357 158.821 6.94952 158.821 7.59571C158.821 8.57571 158.491 9.34833 157.83 9.91357C157.169 10.4802 156.254 10.7633 155.086 10.7629H153.307ZM153.307 9.09285H155.12C155.657 9.09285 156.066 8.96476 156.348 8.70857C156.63 8.45142 156.771 8.085 156.771 7.60928C156.771 7.11881 156.629 6.72238 156.345 6.42C156.061 6.11857 155.668 5.96309 155.168 5.95357H153.307V9.09285ZM169.286 14.2871H167.256V10H163.299V14.2871H161.269V4.28357H163.299V8.33714H167.256V4.28357H169.286V14.2871Z" fill="white"/>
<path d="M53.315 23.1157H51.1693V29.0321H49.9836V23.1157H47.8571V22.1521H53.315V23.1157ZM55.625 24.4771C55.7978 24.2683 56.0155 24.1012 56.2618 23.9883C56.5082 23.8754 56.7769 23.8196 57.0479 23.825C58.1383 23.825 58.6907 24.4471 58.705 25.6914V29.0321H57.5579V25.7343C57.5579 25.3814 57.4817 25.1317 57.3293 24.985C57.1755 24.8388 56.9507 24.7657 56.655 24.7657C56.195 24.7657 55.8517 24.9702 55.625 25.3793V29.0321H54.4764V21.7743H55.625V24.4771ZM62.505 29.1264C61.7774 29.1264 61.1874 28.8974 60.735 28.4393C60.2831 27.9807 60.0571 27.3705 60.0571 26.6086V26.4664C60.0571 25.956 60.1557 25.5 60.3529 25.0986C60.5348 24.7139 60.8221 24.3887 61.1814 24.1607C61.5381 23.9367 61.9517 23.8202 62.3729 23.825C63.0686 23.825 63.6064 24.0469 63.9864 24.4907C64.3655 24.9355 64.5552 25.564 64.5557 26.3764V26.84H61.2143C61.2495 27.2619 61.3907 27.5957 61.6379 27.8414C61.885 28.0871 62.196 28.21 62.5707 28.21C63.0969 28.21 63.5255 27.9971 63.8564 27.5714L64.4757 28.1629C64.2703 28.4688 63.987 28.7144 63.655 28.8743C63.2963 29.0461 62.9027 29.1324 62.505 29.1264ZM62.3679 24.7457C62.0526 24.7457 61.7983 24.8562 61.605 25.0771C61.4112 25.2971 61.2874 25.6043 61.2336 25.9986H63.4207V25.9129C63.3964 25.529 63.2943 25.2386 63.1143 25.0414C62.9343 24.8443 62.6855 24.7457 62.3679 24.7457ZM69.0343 29.0321V24.77H68.2543V23.9193H69.0343V23.4514C69.0343 22.8843 69.1919 22.4464 69.5071 22.1379C69.8219 21.8293 70.2629 21.675 70.83 21.675C71.0319 21.675 71.2462 21.7033 71.4729 21.76L71.4443 22.6579C71.2996 22.6302 71.1523 22.6175 71.005 22.62C70.4569 22.62 70.1831 22.9019 70.1836 23.4657V23.9193H71.2214V24.77H70.1829V29.0321H69.0343ZM75.5457 28.5321C75.2086 28.9283 74.7295 29.1264 74.1086 29.1264C73.5538 29.1264 73.1343 28.9643 72.85 28.64C72.5648 28.3162 72.4221 27.8467 72.4221 27.2314V23.9193H73.5707V27.2171C73.5707 27.8667 73.84 28.1914 74.3786 28.1914C74.9362 28.1914 75.3124 27.9914 75.5071 27.5914V23.9193H76.6557V29.0321H75.5736L75.5457 28.5321ZM79.6514 22.6764V23.9193H80.5543V24.77H79.6514V27.6236C79.6514 27.8193 79.69 27.9605 79.7672 28.0471C79.8448 28.1329 79.9826 28.176 80.1807 28.1764C80.3136 28.1764 80.4474 28.1607 80.5821 28.1293V29.0179C80.3364 29.0886 80.0821 29.125 79.8264 29.1264C78.9445 29.1264 78.5036 28.6398 78.5036 27.6664V24.77H77.6621V23.9193H78.5029V22.6771L79.6514 22.6764ZM84.915 28.5321C84.5779 28.9293 84.0991 29.1276 83.4786 29.1271C82.9238 29.1271 82.5041 28.965 82.2193 28.6407C81.9336 28.3169 81.791 27.8474 81.7914 27.2321V23.92H82.94V27.2179C82.94 27.8674 83.2093 28.1921 83.7479 28.1921C84.305 28.1921 84.6814 27.9921 84.8771 27.5921V23.92H86.0257V29.0329H84.9436L84.915 28.5321ZM90.2593 24.9693C90.1046 24.9439 89.9482 24.9312 89.7914 24.9314C89.2652 24.9314 88.9107 25.1331 88.7279 25.5364V29.0329H87.58V23.92H88.6764L88.7043 24.4914C88.9819 24.0476 89.3662 23.8257 89.8571 23.8257C90.021 23.8257 90.1564 23.8476 90.2636 23.8914L90.2593 24.9693ZM93.5336 29.1271C92.8055 29.1271 92.2155 28.8981 91.7636 28.44C91.3121 27.9814 91.0862 27.3712 91.0857 26.6093V26.4671C91.0857 25.9567 91.1841 25.5007 91.3807 25.0993C91.5629 24.7145 91.8504 24.3893 92.21 24.1614C92.5665 23.9376 92.9798 23.821 93.4007 23.8257C94.0974 23.8257 94.6352 24.0476 95.0143 24.4914C95.3938 24.9362 95.5838 25.5648 95.5843 26.3771V26.8407H92.2429C92.2781 27.2626 92.4193 27.5964 92.6664 27.8421C92.9136 28.0879 93.2245 28.2107 93.5993 28.2107C94.1255 28.2107 94.5541 27.9979 94.885 27.5721L95.5043 28.1636C95.2989 28.4695 95.0156 28.7151 94.6836 28.875C94.3249 29.0469 93.9313 29.1332 93.5336 29.1271ZM93.3964 24.7464C93.0812 24.7464 92.8269 24.8569 92.6336 25.0779C92.4398 25.2979 92.316 25.605 92.2622 25.9993H94.4493V25.9136C94.4245 25.5298 94.3224 25.2393 94.1429 25.0421C93.9629 24.8455 93.7141 24.7469 93.3964 24.7464ZM99.4436 26.4286C99.4436 25.9276 99.5429 25.4764 99.7414 25.075C99.9236 24.691 100.214 24.3689 100.578 24.1486C100.937 23.9329 101.35 23.825 101.816 23.825C102.506 23.825 103.066 24.0469 103.496 24.4907C103.926 24.9355 104.159 25.5248 104.193 26.2586L104.198 26.5279C104.198 27.0317 104.101 27.4821 103.907 27.8793C103.727 28.2618 103.437 28.5824 103.075 28.8007C102.715 29.0179 102.298 29.1264 101.826 29.1264C101.104 29.1264 100.527 28.8864 100.094 28.4064C99.6602 27.9255 99.4436 27.285 99.4436 26.485V26.4286ZM100.592 26.5279C100.592 27.054 100.701 27.466 100.919 27.7636C101.135 28.0612 101.438 28.21 101.826 28.21C102.213 28.21 102.514 28.0586 102.73 27.7557C102.946 27.4543 103.054 27.0119 103.054 26.4286C103.054 25.9124 102.943 25.5029 102.721 25.2C102.499 24.8971 102.197 24.746 101.816 24.7464C101.441 24.7464 101.144 24.8952 100.923 25.1929C100.702 25.4905 100.592 25.9355 100.592 26.5279ZM105.961 29.0321V24.77H105.181V23.9193H105.961V23.4514C105.961 22.8843 106.118 22.4464 106.433 22.1379C106.748 21.8293 107.189 21.675 107.756 21.675C107.958 21.675 108.172 21.7033 108.399 21.76L108.37 22.6579C108.226 22.6302 108.079 22.6175 107.931 22.62C107.383 22.62 107.109 22.9019 107.109 23.4657V23.9193H108.148V24.77H107.109V29.0321H105.961ZM113.251 23.9193L113.284 24.4536C113.643 24.0345 114.134 23.825 114.758 23.825C115.441 23.825 115.909 24.0867 116.161 24.61C116.533 24.0862 117.056 23.8245 117.73 23.825C118.294 23.825 118.714 23.981 118.989 24.2929C119.265 24.6043 119.407 25.064 119.413 25.6721V29.0321H118.264V25.7057C118.264 25.381 118.193 25.1431 118.051 24.9921C117.91 24.8407 117.675 24.765 117.348 24.765C117.086 24.765 116.873 24.8352 116.707 24.9757C116.539 25.12 116.418 25.3114 116.36 25.5257L116.365 29.0329H115.216V25.6679C115.201 25.066 114.894 24.765 114.295 24.765C113.835 24.765 113.509 24.9526 113.317 25.3279V29.0321H112.169V23.9193H113.251ZM120.764 26.4293C120.764 25.9279 120.863 25.4764 121.061 25.075C121.243 24.6911 121.534 24.3691 121.898 24.1486C122.256 23.9329 122.669 23.825 123.136 23.825C123.826 23.825 124.386 24.0469 124.815 24.4907C125.245 24.9355 125.478 25.5248 125.512 26.2586L125.517 26.5279C125.517 27.0317 125.42 27.4821 125.227 27.8793C125.047 28.2619 124.757 28.5825 124.394 28.8007C124.034 29.0179 123.617 29.1264 123.145 29.1264C122.424 29.1264 121.846 28.8864 121.414 28.4064C120.98 27.9255 120.764 27.285 120.764 26.485V26.4293ZM121.912 26.5279C121.912 27.054 122.021 27.466 122.238 27.7636C122.455 28.0612 122.758 28.21 123.145 28.21C123.532 28.21 123.834 28.0586 124.05 27.7557C124.266 27.4543 124.374 27.0119 124.374 26.4286C124.374 25.9124 124.263 25.5029 124.041 25.2C123.818 24.8971 123.517 24.746 123.136 24.7464C122.76 24.7464 122.463 24.8952 122.242 25.1929C122.022 25.4905 121.912 25.9355 121.912 26.5279ZM127.941 23.9193L127.974 24.51C128.352 24.0529 128.848 23.8245 129.462 23.825C130.527 23.825 131.069 24.4345 131.088 25.6536V29.0321H129.94V25.72C129.94 25.3957 129.87 25.1555 129.729 24.9993C129.59 24.8431 129.36 24.765 129.041 24.765C128.579 24.765 128.234 24.9745 128.007 25.3936V29.0321H126.859V23.9193H127.941ZM134.896 29.1264C134.168 29.1264 133.579 28.8974 133.127 28.4393C132.675 27.9807 132.449 27.3705 132.449 26.6086V26.4664C132.449 25.956 132.547 25.5 132.744 25.0986C132.926 24.7137 133.214 24.3885 133.574 24.1607C133.93 23.937 134.343 23.8204 134.764 23.825C135.46 23.825 135.998 24.0469 136.378 24.4907C136.757 24.9355 136.947 25.564 136.947 26.3764V26.84H133.606C133.641 27.2619 133.781 27.5957 134.029 27.8414C134.276 28.0871 134.587 28.21 134.962 28.21C135.488 28.21 135.917 27.9971 136.247 27.5714L136.867 28.1629C136.662 28.4687 136.379 28.7143 136.047 28.8743C135.688 29.0464 135.294 29.1327 134.896 29.1264ZM134.759 24.7457C134.445 24.7457 134.19 24.8562 133.996 25.0771C133.802 25.2971 133.679 25.6043 133.625 25.9986H135.813V25.9129C135.788 25.529 135.685 25.2386 135.506 25.0414C135.326 24.8443 135.077 24.7457 134.759 24.7457ZM139.952 27.3879L140.991 23.9193H142.215L140.183 29.8071C139.871 30.6671 139.342 31.0971 138.596 31.0971C138.408 31.0939 138.222 31.0653 138.043 31.0121V30.1236L138.261 30.1379C138.55 30.1379 138.768 30.0852 138.914 29.98C139.061 29.8738 139.177 29.6967 139.261 29.4486L139.427 29.0086L137.632 23.9193H138.87L139.952 27.3879ZM25.0571 29.1057L17.8529 32.2021V31.8921C16.4636 32.2436 14.925 32.4464 13.4671 32.5114C6.69286 32.4464 1.31571 28.9414 1.25286 24.7707V23.2214C3.47786 26.42 8.00786 28.5629 13.4671 28.4857C15.315 28.5629 17.2043 28.2743 18.7921 27.8664L19.4186 26.3179C17.5357 26.8736 15.48 27.26 13.4679 27.2464C6.69286 27.26 1.31571 23.755 1.25357 19.5064V18.2679C3.47786 21.225 7.99786 23.3679 13.4679 23.2221C15.9286 23.3686 18.335 22.8564 20.3579 21.9829L20.6721 20.435C18.695 21.4657 16.1329 22.0643 13.4679 21.9829C6.69286 22.0643 1.31571 18.5593 1.25357 14.2429V13.0036C3.47786 16.0293 8.00786 18.1729 13.4679 18.2679C16.5707 18.1729 19.5129 17.3621 21.925 16.1L22.2379 14.2421C20.0493 15.8457 16.8536 16.8793 13.4679 17.0286C6.69286 16.8793 1.31643 13.3736 1.25357 8.97857C1.31571 4.79857 6.69286 1.29286 13.4679 1.23786C17.5064 1.29357 21.2571 2.69357 23.4907 4.95357L23.7086 5.31143L25.2871 5.31857L25.0571 4.95357C22.8357 1.97 18.3929 0 13.4679 0C5.97143 0 0 4.08429 0 8.97929V25.08C0.263571 29.8586 6.09857 33.7493 13.4679 33.7493C18.335 33.7493 22.7093 31.8564 25.0571 29.1057Z" fill="white"/>
<path d="M22.1263 40L24.6549 29.375L17.3856 32.5L21.8113 14.0629H13.2756L15.4878 5H42.6728L40.4599 14.0629H31.6099L29.7128 19.0629L39.5114 15L22.1263 40ZM26.5521 27.1871L25.2878 33.4371L35.7185 17.8129L27.1835 21.5629L30.9771 12.8129H39.5114L41.0921 6.25H16.4356L14.8549 12.8129H23.3906L19.2806 30.3129L26.5513 27.1886L26.5521 27.1871Z" fill="white"/>
<path d="M69.0157 29.0429H70.1543V24.7614H71.2086V23.9286H70.1543V23.4371C70.1543 23.2576 70.1857 23.1064 70.2486 22.9836C70.3113 22.8631 70.4106 22.7656 70.5321 22.705C70.6583 22.6383 70.8081 22.605 70.9814 22.605C71.0671 22.605 71.1457 22.6083 71.2171 22.615C71.2933 22.6212 71.3629 22.6321 71.4257 22.6479L71.4543 21.7693C71.3489 21.7406 71.2414 21.7201 71.1329 21.7079C71.0217 21.6912 70.9095 21.6833 70.7971 21.6843C70.4314 21.6843 70.1148 21.7519 69.8471 21.8871C69.5841 22.0146 69.3676 22.2211 69.2279 22.4779C69.0864 22.7364 69.0157 23.0562 69.0157 23.4371V23.9286H68.2307V24.7607H69.0157V29.0429ZM55.6286 24.5164V21.7843H54.495V29.0429H55.6286V25.3929C55.6624 25.3281 55.7005 25.2671 55.7429 25.21C55.8467 25.0686 55.9757 24.9567 56.13 24.8743C56.2871 24.7929 56.4681 24.7521 56.6729 24.7521C56.8686 24.7521 57.034 24.7852 57.1693 24.8514C57.305 24.9143 57.4074 25.0181 57.4764 25.1629C57.5493 25.3081 57.5857 25.5033 57.5857 25.7486V29.0429H58.7286V25.7586C58.7286 25.4086 58.6893 25.1124 58.6107 24.87C58.5487 24.6472 58.4335 24.4427 58.275 24.2743C58.1292 24.1205 57.9476 24.0052 57.7464 23.9386C57.5269 23.8663 57.2968 23.8313 57.0657 23.835C56.79 23.8309 56.517 23.8902 56.2678 24.0084C56.0186 24.1265 55.7999 24.3003 55.6286 24.5164ZM51.1729 29.0429V23.1071H53.3329V22.1621H47.8557V23.1071H49.9964V29.0429H51.1729Z" fill="white"/>
<path fill-rule="evenodd" clip-rule="evenodd" d="M62.5143 29.1371C62.1637 29.1425 61.8154 29.08 61.4886 28.9529C61.1969 28.8334 60.933 28.6549 60.7136 28.4286C60.5006 28.2003 60.335 27.9321 60.2265 27.6393C60.1116 27.3259 60.0541 26.9945 60.0565 26.6607V26.4721C60.0565 26.0721 60.1148 25.7098 60.2315 25.385C60.3477 25.0607 60.5098 24.7836 60.7179 24.5536C60.9209 24.323 61.1727 24.1405 61.455 24.0193C61.7461 23.8947 62.0599 23.832 62.3765 23.835C62.7422 23.835 63.0622 23.8964 63.3365 24.0193C63.6098 24.1421 63.8365 24.3155 64.0165 24.5393C64.1993 24.7598 64.335 25.0229 64.4236 25.3286C64.5141 25.6343 64.5596 25.9714 64.56 26.34V26.8264H61.2058C61.2172 26.9879 61.2453 27.1407 61.29 27.285C61.3529 27.4741 61.4441 27.6395 61.5636 27.7814C61.6836 27.9229 61.8289 28.0348 61.9993 28.1171C62.1689 28.1957 62.3624 28.235 62.58 28.235C62.8543 28.235 63.0986 28.1798 63.3129 28.0693C63.5272 27.9588 63.7129 27.8029 63.87 27.6014L64.47 28.1829C64.3481 28.3557 64.2035 28.5114 64.04 28.6457C63.8638 28.791 63.6481 28.9091 63.3929 29C63.1102 29.0964 62.8129 29.1428 62.5143 29.1371ZM61.2758 25.7586C61.2566 25.8412 61.2411 25.9246 61.2293 26.0086H63.435V25.9193C63.431 25.7212 63.3896 25.5256 63.3129 25.3429C63.245 25.1685 63.1284 25.0173 62.9772 24.9071C62.8258 24.7976 62.6241 24.7429 62.3722 24.7429C62.1831 24.7429 62.0146 24.7836 61.8665 24.865C61.7177 24.9472 61.5923 25.0659 61.5022 25.21C61.3978 25.3795 61.3213 25.5648 61.2758 25.7586Z" fill="white"/>
<path d="M74.9651 28.9629C75.1824 28.8587 75.374 28.708 75.5265 28.5215L75.5558 29.0429H76.633V23.9293H75.4894V27.5993C75.4097 27.7728 75.2837 27.9208 75.1251 28.0272C74.9394 28.1529 74.6844 28.2157 74.3601 28.2157C74.2512 28.2165 74.1428 28.2006 74.0387 28.1686C73.9386 28.1374 73.8476 28.0823 73.7737 28.0079C73.6924 27.9232 73.6312 27.8215 73.5944 27.71C73.5464 27.5588 73.524 27.4007 73.528 27.2422V23.9293H72.3894V27.2329C72.3894 27.57 72.4304 27.86 72.5123 28.1029C72.5942 28.3457 72.7092 28.5424 72.8573 28.6929C73.0082 28.8443 73.1877 28.9562 73.3958 29.0286C73.6039 29.101 73.8323 29.1372 74.0808 29.1372C74.4242 29.1372 74.7189 29.0791 74.9651 28.9629ZM80.5215 24.7615V23.9286H79.6094V22.6765H78.4708V23.9286H77.6387V24.7607H78.4708V27.7C78.4708 28.05 78.5275 28.3305 78.6408 28.5415C78.7542 28.7529 78.9118 28.9055 79.1137 28.9993C79.3151 29.0907 79.5465 29.1365 79.808 29.1365C79.9689 29.1365 80.1108 29.1255 80.2337 29.1036C80.3594 29.0817 80.4696 29.0565 80.5644 29.0279L80.5594 28.1586C80.4272 28.1855 80.2928 28.1998 80.158 28.2015C80.048 28.2015 79.9518 28.1872 79.8694 28.1586C79.7867 28.129 79.7178 28.07 79.6758 27.9929C79.6315 27.9081 79.6094 27.7867 79.6094 27.6286V24.7607L80.5215 24.7615ZM84.3301 28.9629C84.5539 28.8534 84.7413 28.7062 84.8923 28.5215L84.9208 29.0429H85.9987V23.9293H84.8551V27.5993C84.7751 27.7726 84.6491 27.9206 84.4908 28.0272C84.3051 28.1529 84.0499 28.2157 83.7251 28.2157C83.6118 28.2157 83.5046 28.2 83.4037 28.1686C83.3038 28.1373 83.2131 28.0822 83.1394 28.0079C83.0579 27.9233 82.9964 27.8215 82.9594 27.71C82.9117 27.5588 82.8895 27.4007 82.8937 27.2422V23.9293H81.7544V27.2329C81.7544 27.57 81.7954 27.86 81.8773 28.1029C81.9592 28.3457 82.0742 28.5424 82.2223 28.6929C82.3737 28.8443 82.5534 28.9562 82.7615 29.0286C82.9692 29.101 83.1975 29.1372 83.4465 29.1372C83.7899 29.1372 84.0844 29.0791 84.3301 28.9629ZM88.6865 25.5479V29.0429H87.548V23.9293H88.6351L88.6673 24.53L88.6865 24.4965C88.8161 24.2888 88.9768 24.1267 89.1687 24.01C89.3639 23.8934 89.5892 23.835 89.8444 23.835C89.9139 23.835 89.988 23.8412 90.0665 23.8536C90.1485 23.8665 90.2099 23.8807 90.2508 23.8965L90.2415 24.955C90.0885 24.9303 89.9337 24.9176 89.7787 24.9172C89.5835 24.9172 89.4118 24.9457 89.2637 25.0029C89.1345 25.048 89.0164 25.1198 88.9169 25.2137C88.8174 25.3077 88.739 25.4215 88.6865 25.5479Z" fill="white"/>
<path fill-rule="evenodd" clip-rule="evenodd" d="M93.5021 29.1371C93.124 29.1371 92.7821 29.0757 92.4764 28.9528C92.1847 28.8334 91.9208 28.6549 91.7014 28.4286C91.4884 28.2003 91.3228 27.932 91.2143 27.6393C91.0994 27.3259 91.0419 26.9944 91.0443 26.6607V26.4721C91.0443 26.0721 91.1026 25.7097 91.2193 25.385C91.3355 25.0607 91.4976 24.7836 91.7057 24.5536C91.909 24.3229 92.161 24.1404 92.4436 24.0193C92.7346 23.8947 93.0484 23.8319 93.365 23.835C93.7302 23.835 94.05 23.8964 94.3243 24.0193C94.5985 24.1421 94.8255 24.3155 95.005 24.5393C95.1874 24.7597 95.3226 25.0228 95.4107 25.3285C95.5021 25.6343 95.5478 25.9714 95.5478 26.34V26.8264H92.1935C92.205 26.9878 92.2331 27.1407 92.2778 27.285C92.3407 27.474 92.4321 27.6395 92.5521 27.7814C92.6712 27.9228 92.8159 28.0347 92.9864 28.1171C93.1569 28.1957 93.3507 28.235 93.5678 28.235C93.8219 28.2398 94.0734 28.183 94.3007 28.0693C94.515 27.9588 94.7007 27.8028 94.8578 27.6014L95.4585 28.1828C95.3366 28.3557 95.192 28.5114 95.0285 28.6457C94.8347 28.8004 94.6155 28.9203 94.3807 29C94.098 29.0964 93.8007 29.1428 93.5021 29.1371ZM92.2636 25.7586C92.2444 25.8412 92.2289 25.9246 92.2171 26.0085H94.4235V25.9193C94.4193 25.7211 94.3776 25.5255 94.3007 25.3428C94.2327 25.1685 94.1162 25.0173 93.965 24.9071C93.8135 24.7976 93.6119 24.7428 93.36 24.7428C93.1709 24.7428 93.0024 24.7836 92.8543 24.865C92.709 24.944 92.5878 25.059 92.4907 25.21C92.3849 25.3789 92.3081 25.5643 92.2636 25.7586ZM99.3843 26.4343V26.5428C99.3843 26.9114 99.4378 27.2533 99.545 27.5686C99.6521 27.8828 99.8081 28.1586 100.013 28.3957C100.218 28.629 100.466 28.8116 100.759 28.9436C101.056 29.0726 101.392 29.1371 101.766 29.1371C102.138 29.1371 102.47 29.0728 102.764 28.9443C103.056 28.8114 103.305 28.6286 103.51 28.3957C103.719 28.1535 103.878 27.8724 103.978 27.5686C104.085 27.2533 104.139 26.9114 104.139 26.5428V26.4343C104.139 26.0657 104.085 25.7238 103.978 25.4085C103.879 25.1043 103.72 24.8231 103.51 24.5814C103.304 24.3442 103.047 24.1569 102.759 24.0335C102.442 23.8971 102.101 23.8294 101.756 23.835C101.385 23.835 101.051 23.9012 100.755 24.0335C100.462 24.1626 100.213 24.3452 100.008 24.5814C99.8007 24.824 99.6434 25.1051 99.545 25.4085C99.4378 25.7238 99.3843 26.0657 99.3843 26.4343ZM100.524 26.5428V26.4343C100.524 26.2071 100.547 25.9928 100.594 25.7914C100.637 25.599 100.712 25.4154 100.816 25.2486C100.917 25.0909 101.045 24.9678 101.199 24.8793C101.356 24.7878 101.542 24.7421 101.756 24.7421C101.971 24.7421 102.155 24.7878 102.309 24.8793C102.467 24.9678 102.597 25.0907 102.697 25.2478C102.801 25.405 102.877 25.5862 102.924 25.7914C102.974 25.9928 102.999 26.2071 102.999 26.4343V26.5428C102.999 26.7728 102.974 26.9902 102.924 27.195C102.877 27.3997 102.803 27.5793 102.702 27.7336C102.605 27.8849 102.471 28.01 102.314 28.0978C102.147 28.19 101.958 28.2356 101.766 28.23C101.549 28.23 101.361 28.1859 101.204 28.0978C101.047 28.0099 100.914 27.8848 100.816 27.7336C100.711 27.5687 100.636 27.3863 100.594 27.195C100.546 26.981 100.522 26.7622 100.524 26.5428Z" fill="white"/>
<path d="M107.011 29.0428H105.872V24.7614H105.088V23.9286H105.872V23.4371C105.872 23.0562 105.943 22.7364 106.085 22.4778C106.23 22.2159 106.437 22.019 106.704 21.8871C106.972 21.7514 107.289 21.6838 107.654 21.6843C107.767 21.6843 107.879 21.6921 107.989 21.7078C108.1 21.7202 108.207 21.7407 108.311 21.7693L108.283 22.6478C108.214 22.6318 108.145 22.6208 108.074 22.615C107.996 22.6086 107.917 22.6055 107.839 22.6057C107.665 22.6057 107.515 22.6388 107.389 22.705C107.268 22.7663 107.169 22.8636 107.106 22.9836C107.039 23.1253 107.007 23.2806 107.011 23.4371V23.9286H108.065V24.7607H107.011V29.0428ZM113.196 25.3671V29.0428H112.057V23.9293H113.13L113.166 24.5057C113.333 24.2962 113.537 24.1343 113.777 24.02C114.033 23.8962 114.328 23.8345 114.661 23.835C114.895 23.835 115.107 23.8697 115.299 23.9393C115.495 24.005 115.663 24.1105 115.805 24.2557C115.91 24.3605 115.997 24.4874 116.066 24.6364C116.096 24.5936 116.127 24.5516 116.159 24.5107C116.33 24.2997 116.539 24.1343 116.788 24.0143C117.056 23.8898 117.348 23.8284 117.644 23.835C117.905 23.835 118.138 23.8712 118.343 23.9436C118.551 24.0131 118.727 24.1233 118.872 24.2743C119.017 24.4252 119.127 24.6221 119.203 24.865C119.279 25.1045 119.316 25.3945 119.316 25.735V29.0428H118.173V25.73C118.173 25.4714 118.135 25.2714 118.059 25.13C117.996 24.9965 117.884 24.8919 117.747 24.8371C117.611 24.78 117.449 24.7514 117.261 24.7514C117.084 24.7514 116.928 24.7847 116.793 24.8514C116.661 24.9136 116.546 25.0059 116.457 25.1207C116.366 25.2353 116.296 25.3655 116.251 25.505C116.253 25.5478 116.254 25.5914 116.254 25.6357V29.0428H115.115V25.7357C115.115 25.4866 115.077 25.2914 115.001 25.15C114.936 25.0144 114.823 24.9069 114.685 24.8471C114.532 24.7804 114.365 24.7482 114.198 24.7528C113.984 24.7528 113.801 24.7938 113.65 24.8757C113.503 24.9567 113.378 25.0719 113.286 25.2114C113.252 25.2609 113.223 25.3128 113.196 25.3671Z" fill="white"/>
<path fill-rule="evenodd" clip-rule="evenodd" d="M120.649 26.5428V26.4343C120.649 26.0657 120.702 25.7238 120.809 25.4085C120.916 25.0909 121.071 24.8152 121.272 24.5814C121.476 24.3448 121.732 24.1575 122.019 24.0335C122.335 23.8971 122.676 23.8294 123.021 23.835C123.396 23.835 123.73 23.9012 124.023 24.0335C124.319 24.1626 124.569 24.3452 124.774 24.5814C124.979 24.8147 125.135 25.0905 125.242 25.4085C125.349 25.7238 125.403 26.0657 125.403 26.4343V26.5428C125.403 26.9114 125.349 27.2533 125.242 27.5686C125.135 27.8828 124.979 28.1586 124.774 28.3957C124.568 28.6306 124.313 28.8176 124.027 28.9436C123.734 29.0726 123.402 29.1371 123.03 29.1371C122.685 29.143 122.342 29.0774 122.024 28.9443C121.738 28.818 121.483 28.6308 121.277 28.3957C121.068 28.1535 120.909 27.8724 120.809 27.5686C120.699 27.2379 120.645 26.8913 120.649 26.5428ZM121.787 26.4343V26.5428C121.787 26.7728 121.811 26.9902 121.858 27.195C121.906 27.3997 121.98 27.5793 122.08 27.7336C122.181 27.8883 122.31 28.0097 122.468 28.0978C122.625 28.1859 122.812 28.23 123.03 28.23C123.241 28.23 123.424 28.1859 123.579 28.0978C123.735 28.0099 123.868 27.8848 123.966 27.7336C124.071 27.5687 124.147 27.3863 124.188 27.195C124.238 26.9902 124.264 26.7728 124.264 26.5428V26.4343C124.264 26.2071 124.238 25.9928 124.188 25.7914C124.146 25.5983 124.069 25.4144 123.961 25.2486C123.866 25.0946 123.732 24.9675 123.574 24.8793C123.405 24.7845 123.214 24.7371 123.021 24.7421C122.806 24.7421 122.621 24.7878 122.463 24.8793C122.307 24.969 122.176 25.0955 122.08 25.2478C121.98 25.405 121.906 25.5862 121.858 25.7914C121.81 26.0023 121.786 26.218 121.787 26.4343Z" fill="white"/>
<path d="M127.864 25.4093V29.0429H126.725V23.9293H127.798L127.835 24.5457L127.859 24.5157C128.033 24.3024 128.253 24.1309 128.502 24.0143C128.762 23.8923 129.047 23.8309 129.334 23.835C129.579 23.835 129.802 23.8698 130 23.9393C130.202 24.005 130.374 24.1136 130.515 24.265C130.66 24.4165 130.771 24.6134 130.847 24.8557C130.922 25.0953 130.959 25.3898 130.959 25.7393V29.0429H129.816V25.7357C129.816 25.49 129.78 25.2962 129.707 25.1543C129.646 25.0176 129.537 24.9082 129.4 24.8472C129.244 24.7791 129.074 24.7469 128.904 24.7529C128.708 24.7529 128.534 24.7938 128.379 24.8757C128.225 24.9573 128.092 25.072 127.987 25.2115C127.942 25.2734 127.901 25.3393 127.864 25.4093Z" fill="white"/>
<path fill-rule="evenodd" clip-rule="evenodd" d="M134.754 29.1371C134.403 29.1425 134.055 29.0799 133.729 28.9529C133.437 28.8334 133.173 28.6549 132.954 28.4286C132.741 28.2003 132.575 27.9321 132.466 27.6393C132.352 27.3259 132.294 26.9945 132.296 26.6607V26.4721C132.296 26.0721 132.355 25.7098 132.471 25.385C132.588 25.0607 132.75 24.7836 132.958 24.5536C133.161 24.323 133.413 24.1405 133.695 24.0193C133.986 23.8947 134.3 23.832 134.616 23.835C134.982 23.835 135.302 23.8964 135.576 24.0193C135.85 24.1421 136.077 24.3155 136.256 24.5393C136.439 24.7598 136.575 25.0229 136.663 25.3286C136.754 25.6343 136.8 25.9714 136.8 26.34V26.8264H133.446C133.457 26.9879 133.485 27.1407 133.53 27.285C133.593 27.4741 133.684 27.6395 133.804 27.7814C133.924 27.9229 134.069 28.0348 134.239 28.1171C134.409 28.1957 134.602 28.235 134.82 28.235C135.094 28.235 135.338 28.1798 135.552 28.0693C135.766 27.9588 135.952 27.8029 136.11 27.6014L136.71 28.1829C136.588 28.3557 136.443 28.5114 136.28 28.6457C136.086 28.8003 135.867 28.9202 135.633 29C135.35 29.0965 135.052 29.1429 134.754 29.1371ZM133.516 25.7586C133.497 25.8412 133.481 25.9246 133.469 26.0086H135.675V25.9193C135.671 25.7211 135.629 25.5255 135.552 25.3429C135.484 25.1686 135.368 25.0174 135.217 24.9071C135.066 24.7976 134.864 24.7429 134.612 24.7429C134.423 24.7429 134.254 24.7836 134.106 24.865C133.961 24.9441 133.84 25.0591 133.742 25.21C133.638 25.3795 133.561 25.5648 133.516 25.7586Z" fill="white"/>
<path d="M139.281 29.03L137.471 23.93H138.699L139.808 27.4228L140.873 23.93H142.092L140.041 29.8228C139.987 29.9629 139.926 30.1 139.857 30.2336C139.778 30.3872 139.678 30.5291 139.559 30.655C139.439 30.7902 139.29 30.8988 139.111 30.9807C138.931 31.0655 138.713 31.1079 138.459 31.1079C138.358 31.1079 138.26 31.0983 138.165 31.0793C138.078 31.0644 137.991 31.0473 137.905 31.0279L137.901 30.1579C137.976 30.1646 138.052 30.1694 138.127 30.1721C138.288 30.1767 138.448 30.1528 138.6 30.1014C138.722 30.0613 138.829 29.9857 138.907 29.8843C138.989 29.7833 139.058 29.6476 139.115 29.4771L139.281 29.03Z" fill="white"/>
</g>
</svg>
